<?xml version="1.0" encoding="UTF-8"?>
<svg version="1.1" xmlns="http://www.w3.org/2000/svg" width="96" height="96">
<path d="M0 0 C0.99 0.33 1.98 0.66 3 1 C3.6875 3.0625 3.6875 3.0625 4 5 C5.32 5.33 6.64 5.66 8 6 C7 9 7 9 6 10 C6.96421875 9.95359375 7.9284375 9.9071875 8.921875 9.859375 C10.18515625 9.82328125 11.4484375 9.7871875 12.75 9.75 C14.00296875 9.70359375 15.2559375 9.6571875 16.546875 9.609375 C20 10 20 10 22.453125 11.8046875 C24 14 24 14 24 17.375 C21.98198091 24.6903192 17.46523418 29.25627097 11 33 C10.01 33 9.02 33 8 33 C8.25 30.6875 8.25 30.6875 9 28 C9.680625 27.505 10.36125 27.01 11.0625 26.5 C11.701875 26.005 12.34125 25.51 13 25 C13.33425735 22.37374861 13.33425735 22.37374861 13 20 C5.30993638 18.590155 -0.5538155 19.76992444 -8 22 C-7.4225 22.99 -6.845 23.98 -6.25 25 C-5.8890625 25.64195313 -5.528125 26.28390625 -5.15625 26.9453125 C-4.40315805 28.28357725 -3.63303076 29.61244191 -2.84375 30.9296875 C-0.02328073 35.94609355 0.92090973 40.26624062 0 46 C-1.3125 48.875 -1.3125 48.875 -3 51 C-3.433125 51.5775 -3.86625 52.155 -4.3125 52.75 C-6.72336404 54.53582522 -9.06524268 54.67391585 -12 55 C-11.86980469 54.33613281 -11.73960938 53.67226562 -11.60546875 52.98828125 C-10.60744734 47.16909066 -10.60744734 47.16909066 -13.0625 42 C-16.01923842 39.9869015 -18.54613262 38.88354747 -22 38 C-22.66 41.63 -23.32 45.26 -24 49 C-23.0925 48.505 -22.185 48.01 -21.25 47.5 C-18 46 -18 46 -14 46 C-14.21875 47.8515625 -14.21875 47.8515625 -15 50 C-17.03125 51.2734375 -17.03125 51.2734375 -19.5 52.375 C-21.94712054 53.55682292 -21.94712054 53.55682292 -24 55 C-25.21282289 58.15949682 -25.21282289 58.15949682 -25 61 C-19.07275848 62.89671729 -13.02479086 61.98363932 -7 61 C-6.67 61.66 -6.34 62.32 -6 63 C-9.47843506 66.86492784 -12.4691747 68.72680678 -17.69140625 69.29052734 C-20.79470625 69.33961015 -23.89628341 69.37129628 -27 69.375 C-28.08023438 69.39949219 -29.16046875 69.42398438 -30.2734375 69.44921875 C-38.21214589 69.47862137 -38.21214589 69.47862137 -42.125 67.1015625 C-42.74375 66.40804687 -43.3625 65.71453125 -44 65 C-44.66 64.34 -45.32 63.68 -46 63 C-47.3303125 63.495 -47.3303125 63.495 -48.6875 64 C-54.6999113 65.7248721 -62.38499576 66.25949896 -68.33203125 64.1875 C-70 63 -70 63 -71 59.75 C-71 55.26723904 -69.95533869 53.16971559 -67 50 C-58.67157356 41.73258767 -58.67157356 41.73258767 -54 41 C-54.061875 39.906875 -54.12375 38.81375 -54.1875 37.6875 C-54.08288181 27.80108064 -51.19884035 21.14648673 -44.26171875 14.09765625 C-37.79691618 8.10180309 -31.93803486 6.33478202 -23.3125 5.75 C-19.90531014 6.0071464 -17.17353924 6.76154566 -14 8 C-13.34 6.02 -12.68 4.04 -12 2 C-8.125 5.75 -8.125 5.75 -7 8 C-6.34 8 -5.68 8 -5 8 C-4.67 7.01 -4.34 6.02 -4 5 C-3.01 4.34 -2.02 3.68 -1 3 C-0.67 2.01 -0.34 1.02 0 0 Z M-4 9 C-3.67 9.99 -3.34 10.98 -3 12 C-4.98 12.66 -6.96 13.32 -9 14 C-8.67 14.66 -8.34 15.32 -8 16 C-5.69 15.01 -3.38 14.02 -1 13 C-1.33 11.68 -1.66 10.36 -2 9 C-2.66 9 -3.32 9 -4 9 Z M-32 13 C-30.21092278 16.75151144 -30.21092278 16.75151144 -26.8125 18.8125 C-26.214375 18.874375 -25.61625 18.93625 -25 19 C-24.67 17.02 -24.34 15.04 -24 13 C-23.38511719 13.37253906 -22.77023438 13.74507812 -22.13671875 14.12890625 C-20.92435547 14.83853516 -20.92435547 14.83853516 -19.6875 15.5625 C-18.88699219 16.03816406 -18.08648437 16.51382812 -17.26171875 17.00390625 C-14.90841521 18.342681 -14.90841521 18.342681 -12 17 C-12.71563266 14.9837767 -12.71563266 14.9837767 -14 13 C-16.05000871 12.19471111 -16.05000871 12.19471111 -18 12 C-18 11.34 -18 10.68 -18 10 C-23.06232884 9.51009721 -27.32630846 11.2893678 -32 13 Z M-35 15 C-35.99 16.485 -35.99 16.485 -37 18 C-36.01 17.67 -35.02 17.34 -34 17 C-34.33 16.34 -34.66 15.68 -35 15 Z M-40 21 C-44.15950767 28.18629227 -44.91780187 34.78198093 -44 43 C-43.24533835 45.63484724 -42.34349636 47.59290236 -41 50 C-39.35333797 49.8864371 -37.70763918 49.75882619 -36.0625 49.625 C-34.68771484 49.52058594 -34.68771484 49.52058594 -33.28515625 49.4140625 C-32.53105469 49.27742188 -31.77695312 49.14078125 -31 49 C-29.9108272 46.8216544 -29.71967644 45.2796036 -29.46484375 42.8671875 C-29.33432617 41.65869141 -29.33432617 41.65869141 -29.20117188 40.42578125 C-29.11416016 39.58402344 -29.02714844 38.74226563 -28.9375 37.875 C-28.84662109 37.02550781 -28.75574219 36.17601562 -28.66210938 35.30078125 C-28.4379632 33.2008855 -28.21853552 31.10048707 -28 29 C-29.98 29.33 -31.96 29.66 -34 30 C-33.773125 29.4225 -33.54625 28.845 -33.3125 28.25 C-32.76230437 25.92183801 -32.76230437 25.92183801 -34.1875 23.8125 C-36.19373731 21.80626269 -37.29251486 21.55495037 -40 21 Z M-27 21 C-27.99 21.99 -28.98 22.98 -30 24 C-28.68 23.67 -27.36 23.34 -26 23 C-26.33 22.34 -26.66 21.68 -27 21 Z M-58.125 48.75 C-58.68445313 49.26046875 -59.24390625 49.7709375 -59.8203125 50.296875 C-61.2459041 51.95258493 -61.2459041 51.95258493 -60.7421875 54.140625 C-60.14856229 55.98296612 -60.14856229 55.98296612 -59 57 C-56.32941149 57.14115161 -53.67567762 57.04247107 -51 57 C-49.69736489 54.14697801 -49.69736489 54.14697801 -50.77734375 51.95703125 C-51.16019531 51.24933594 -51.54304688 50.54164062 -51.9375 49.8125 C-52.31777344 49.09707031 -52.69804688 48.38164063 -53.08984375 47.64453125 C-53.39019531 47.10183594 -53.69054687 46.55914062 -54 46 C-55.81039196 46 -56.86485476 47.56604959 -58.125 48.75 Z " fill="#080709" transform="translate(72,13)"/>
<path d="M0 0 C0.99 0.33 1.98 0.66 3 1 C3.6875 3.0625 3.6875 3.0625 4 5 C5.32 5.33 6.64 5.66 8 6 C7 9 7 9 6 10 C6.96421875 9.95359375 7.9284375 9.9071875 8.921875 9.859375 C10.18515625 9.82328125 11.4484375 9.7871875 12.75 9.75 C14.00296875 9.70359375 15.2559375 9.6571875 16.546875 9.609375 C20 10 20 10 22.453125 11.8046875 C24 14 24 14 24 17.375 C21.98198091 24.6903192 17.46523418 29.25627097 11 33 C10.01 33 9.02 33 8 33 C8.25 30.6875 8.25 30.6875 9 28 C9.680625 27.505 10.36125 27.01 11.0625 26.5 C11.701875 26.005 12.34125 25.51 13 25 C13.33425735 22.37374861 13.33425735 22.37374861 13 20 C5.30993638 18.590155 -0.5538155 19.76992444 -8 22 C-7.4225 22.99 -6.845 23.98 -6.25 25 C-5.70859375 25.96292969 -5.70859375 25.96292969 -5.15625 26.9453125 C-4.40315805 28.28357725 -3.63303076 29.61244191 -2.84375 30.9296875 C-0.02328073 35.94609355 0.92090973 40.26624062 0 46 C-1.3125 48.875 -1.3125 48.875 -3 51 C-3.433125 51.5775 -3.86625 52.155 -4.3125 52.75 C-6.72336404 54.53582522 -9.06524268 54.67391585 -12 55 C-11.86980469 54.33613281 -11.73960938 53.67226562 -11.60546875 52.98828125 C-10.60744734 47.16909066 -10.60744734 47.16909066 -13.0625 42 C-16.01923842 39.9869015 -18.54613262 38.88354747 -22 38 C-22.66 41.63 -23.32 45.26 -24 49 C-23.0925 48.505 -22.185 48.01 -21.25 47.5 C-18 46 -18 46 -14 46 C-14.21875 47.8515625 -14.21875 47.8515625 -15 50 C-17.03125 51.2734375 -17.03125 51.2734375 -19.5 52.375 C-21.94712054 53.55682292 -21.94712054 53.55682292 -24 55 C-25.21282289 58.15949682 -25.21282289 58.15949682 -25 61 C-19.07275848 62.89671729 -13.02479086 61.98363932 -7 61 C-6.67 61.66 -6.34 62.32 -6 63 C-8.83430453 66.2542015 -10.68607774 67.5206753 -15 68 C-14.505 66.515 -14.505 66.515 -14 65 C-14.58007812 65.02320312 -15.16015625 65.04640625 -15.7578125 65.0703125 C-16.53898437 65.08835937 -17.32015625 65.10640625 -18.125 65.125 C-18.89070313 65.14820312 -19.65640625 65.17140625 -20.4453125 65.1953125 C-23.52446177 64.95990353 -26.11205813 64.06309744 -29 63 C-27.93170365 53.94221076 -26.78270374 44.95144855 -25 36 C-20.000831 34.75020775 -17.58840634 35.54192517 -13 38 C-10.0625 40.1875 -10.0625 40.1875 -8 43 C-7.59325672 45.80548572 -7.75788343 48.14302445 -8 51 C-4.96226122 48.64820223 -4.03130531 47.10680634 -2.9375 43.375 C-2.39707723 36.46530892 -6.68421414 30.40456455 -10.8125 25.1875 C-13.06529182 22.7488151 -15.36221168 21.0181473 -18.19921875 19.30078125 C-18.91295654 18.86548096 -19.62669434 18.43018066 -20.36206055 17.98168945 C-20.90258057 17.65773193 -21.44310059 17.33377441 -22 17 C-26.05816746 34.8961639 -26.05816746 34.8961639 -29 53 C-29.60328125 52.91621094 -30.2065625 52.83242187 -30.828125 52.74609375 C-31.62734375 52.64425781 -32.4265625 52.54242188 -33.25 52.4375 C-34.03890625 52.33308594 -34.8278125 52.22867188 -35.640625 52.12109375 C-38.00532874 51.99972651 -39.7511037 52.30366743 -42 53 C-42.6509259 51.75264433 -43.29551669 50.50198168 -43.9375 49.25 C-44.29714844 48.55390625 -44.65679687 47.8578125 -45.02734375 47.140625 C-47.84290895 40.94412007 -48.00274078 33.80932502 -46.28125 27.26953125 C-43.15834426 18.94598007 -39.02621019 13.93738613 -31 10 C-30.34 10 -29.68 10 -29 10 C-28.34 8.68 -27.68 7.36 -27 6 C-22.17639811 5.80705592 -18.50353262 6.24252386 -14 8 C-13.34 6.02 -12.68 4.04 -12 2 C-8.125 5.75 -8.125 5.75 -7 8 C-6.34 8 -5.68 8 -5 8 C-4.67 7.01 -4.34 6.02 -4 5 C-3.01 4.34 -2.02 3.68 -1 3 C-0.67 2.01 -0.34 1.02 0 0 Z M-4 9 C-3.67 9.99 -3.34 10.98 -3 12 C-4.98 12.66 -6.96 13.32 -9 14 C-8.67 14.66 -8.34 15.32 -8 16 C-5.69 15.01 -3.38 14.02 -1 13 C-1.33 11.68 -1.66 10.36 -2 9 C-2.66 9 -3.32 9 -4 9 Z M-32 13 C-30.21092278 16.75151144 -30.21092278 16.75151144 -26.8125 18.8125 C-26.214375 18.874375 -25.61625 18.93625 -25 19 C-24.67 17.02 -24.34 15.04 -24 13 C-23.38511719 13.37253906 -22.77023438 13.74507812 -22.13671875 14.12890625 C-20.92435547 14.83853516 -20.92435547 14.83853516 -19.6875 15.5625 C-18.88699219 16.03816406 -18.08648437 16.51382812 -17.26171875 17.00390625 C-14.90841521 18.342681 -14.90841521 18.342681 -12 17 C-12.71563266 14.9837767 -12.71563266 14.9837767 -14 13 C-16.05000871 12.19471111 -16.05000871 12.19471111 -18 12 C-18 11.34 -18 10.68 -18 10 C-23.06232884 9.51009721 -27.32630846 11.2893678 -32 13 Z M-35 15 C-35.99 16.485 -35.99 16.485 -37 18 C-36.01 17.67 -35.02 17.34 -34 17 C-34.33 16.34 -34.66 15.68 -35 15 Z M-40 21 C-44.15950767 28.18629227 -44.91780187 34.78198093 -44 43 C-43.24533835 45.63484724 -42.34349636 47.59290236 -41 50 C-39.35333797 49.8864371 -37.70763918 49.75882619 -36.0625 49.625 C-34.68771484 49.52058594 -34.68771484 49.52058594 -33.28515625 49.4140625 C-32.53105469 49.27742188 -31.77695312 49.14078125 -31 49 C-29.9108272 46.8216544 -29.71967644 45.2796036 -29.46484375 42.8671875 C-29.33432617 41.65869141 -29.33432617 41.65869141 -29.20117188 40.42578125 C-29.11416016 39.58402344 -29.02714844 38.74226563 -28.9375 37.875 C-28.84662109 37.02550781 -28.75574219 36.17601562 -28.66210938 35.30078125 C-28.4379632 33.2008855 -28.21853552 31.10048707 -28 29 C-29.98 29.33 -31.96 29.66 -34 30 C-33.773125 29.4225 -33.54625 28.845 -33.3125 28.25 C-32.76230437 25.92183801 -32.76230437 25.92183801 -34.1875 23.8125 C-36.19373731 21.80626269 -37.29251486 21.55495037 -40 21 Z M-27 21 C-27.99 21.99 -28.98 22.98 -30 24 C-28.68 23.67 -27.36 23.34 -26 23 C-26.33 22.34 -26.66 21.68 -27 21 Z " fill="#070606" transform="translate(72,13)"/>
<path d="M0 0 C9.43469451 5.72371467 16.36408134 12.29330864 20 23 C20.3329589 26.96153135 19.56147268 30.02352578 17.5625 33.5 C16 35 16 35 14 35 C13.77213542 33.01432292 13.54427083 31.02864583 13.31640625 29.04296875 C13.02829265 26.80603607 13.02829265 26.80603607 12 24 C7.6862437 21.28393122 3.05628948 20 -2 20 C-2.4847627 22.45735054 -2.96394665 24.91548056 -3.4375 27.375 C-3.57873291 28.10364258 -3.71996582 28.83228516 -3.86547852 29.58300781 C-4.63168853 33.64846507 -5.18907341 37.61369734 -5.4375 41.75 C-5.71070449 44.81195225 -5.95824612 45.93255142 -7.625 48.625 C-11.01378834 50.58693009 -13.15476829 50.61798367 -17 50 C-19.5 47.9375 -19.5 47.9375 -21 45 C-21 41.19715329 -20.7968187 38.98069994 -18.375 36 C-14.97890031 34.57006329 -12.53811546 35.21375212 -9 36 C-8.34 36.33 -7.68 36.66 -7 37 C-6.90203125 35.90945312 -6.8040625 34.81890625 -6.703125 33.6953125 C-5.89399751 25.32809238 -4.77852773 17.145554 -2.9375 8.9375 C-2.7631543 8.15842285 -2.58880859 7.3793457 -2.40917969 6.57666016 C-1.14246088 1.14246088 -1.14246088 1.14246088 0 0 Z " fill="#6FC4C6" transform="translate(50,29)"/>
<path d="M0 0 C4.41131991 -0.16966615 7.12354057 -0.00075325 11 2 C14.16695956 2.16724737 14.16695956 2.16724737 17 2 C17.495 3.485 17.495 3.485 18 5 C16.35 6.32 14.7 7.64 13 9 C13 8.34 13 7.68 13 7 C11.68 6.67 10.36 6.34 9 6 C9 5.34 9 4.68 9 4 C5.04 4.99 1.08 5.98 -3 7 C-3.10540926 9.21081851 -3.10540926 9.21081851 -2 12 C0.01508358 12.73323796 0.01508358 12.73323796 2 13 C2.33 12.01 2.66 11.02 3 10 C3.33 10 3.66 10 4 10 C4.21101348 15.38787764 3.48120622 19.92561152 2.125 25.125 C0.3163245 32.38442375 -1.01891148 39.57729079 -2 47 C-2.60328125 46.91621094 -3.2065625 46.83242187 -3.828125 46.74609375 C-4.62734375 46.64425781 -5.4265625 46.54242188 -6.25 46.4375 C-7.03890625 46.33308594 -7.8278125 46.22867188 -8.640625 46.12109375 C-11.00532874 45.99972651 -12.7511037 46.30366743 -15 47 C-15.6509259 45.75264433 -16.29551669 44.50198168 -16.9375 43.25 C-17.29714844 42.55390625 -17.65679688 41.8578125 -18.02734375 41.140625 C-20.84290895 34.94412007 -21.00274078 27.80932502 -19.28125 21.26953125 C-16.15834426 12.94598007 -12.02621019 7.93738613 -4 4 C-3.34 4 -2.68 4 -2 4 C-1.34 2.68 -0.68 1.36 0 0 Z M-8 9 C-8.99 10.485 -8.99 10.485 -10 12 C-9.01 11.67 -8.02 11.34 -7 11 C-7.33 10.34 -7.66 9.68 -8 9 Z M-13 15 C-17.15950767 22.18629227 -17.91780187 28.78198093 -17 37 C-16.24533835 39.63484724 -15.34349636 41.59290236 -14 44 C-12.35333797 43.8864371 -10.70763918 43.75882619 -9.0625 43.625 C-7.68771484 43.52058594 -7.68771484 43.52058594 -6.28515625 43.4140625 C-5.53105469 43.27742188 -4.77695312 43.14078125 -4 43 C-2.9108272 40.8216544 -2.71967644 39.2796036 -2.46484375 36.8671875 C-2.33432617 35.65869141 -2.33432617 35.65869141 -2.20117188 34.42578125 C-2.11416016 33.58402344 -2.02714844 32.74226563 -1.9375 31.875 C-1.84662109 31.02550781 -1.75574219 30.17601562 -1.66210938 29.30078125 C-1.4379632 27.2008855 -1.21853552 25.10048707 -1 23 C-2.98 23.33 -4.96 23.66 -7 24 C-6.773125 23.4225 -6.54625 22.845 -6.3125 22.25 C-5.76230437 19.92183801 -5.76230437 19.92183801 -7.1875 17.8125 C-9.19373731 15.80626269 -10.29251486 15.55495037 -13 15 Z M0 15 C-0.99 15.99 -1.98 16.98 -3 18 C-1.68 17.67 -0.36 17.34 1 17 C0.67 16.34 0.34 15.68 0 15 Z " fill="#110E0C" transform="translate(45,19)"/>
<path d="M0 0 C5.87195007 0.29857373 9.30782677 1.20157405 14 5 C16.67927341 9.01891012 16.15601248 11.24161923 16 16 C17.98 14.35 19.96 12.7 22 11 C22.33 11.99 22.66 12.98 23 14 C19.50912907 18.0042343 17.35048061 19.62671065 12 20 C12.13019531 19.33613281 12.26039062 18.67226562 12.39453125 17.98828125 C13.39255266 12.16909066 13.39255266 12.16909066 10.9375 7 C7.98076158 4.9869015 5.45386738 3.88354747 2 3 C1.34 6.63 0.68 10.26 0 14 C0.9075 13.505 1.815 13.01 2.75 12.5 C6 11 6 11 10 11 C9.78125 12.8515625 9.78125 12.8515625 9 15 C6.96875 16.2734375 6.96875 16.2734375 4.5 17.375 C2.05287946 18.55682292 2.05287946 18.55682292 0 20 C-1.21282289 23.15949682 -1.21282289 23.15949682 -1 26 C4.92724152 27.89671729 10.97520914 26.98363932 17 26 C17.33 26.66 17.66 27.32 18 28 C15.16569547 31.2542015 13.31392226 32.5206753 9 33 C9.33 32.01 9.66 31.02 10 30 C9.41992188 30.02320312 8.83984375 30.04640625 8.2421875 30.0703125 C7.46101563 30.08835937 6.67984375 30.10640625 5.875 30.125 C5.10929687 30.14820312 4.34359375 30.17140625 3.5546875 30.1953125 C0.47553823 29.95990353 -2.11205813 29.06309744 -5 28 C-1.92460882 1.92460882 -1.92460882 1.92460882 0 0 Z " fill="#040606" transform="translate(48,48)"/>
<path d="M0 0 C0.99 0.33 1.98 0.66 3 1 C3.6875 3.0625 3.6875 3.0625 4 5 C5.32 5.33 6.64 5.66 8 6 C7 9 7 9 6 10 C6.96421875 9.95359375 7.9284375 9.9071875 8.921875 9.859375 C10.18515625 9.82328125 11.4484375 9.7871875 12.75 9.75 C14.00296875 9.70359375 15.2559375 9.6571875 16.546875 9.609375 C20 10 20 10 22.4453125 11.79296875 C24 14 24 14 24.125 17.5625 C23 21 23 21 19.9375 22.9375 C18.968125 23.288125 17.99875 23.63875 17 24 C16.731875 23.21625 16.46375 22.4325 16.1875 21.625 C15.15185568 18.71885077 15.15185568 18.71885077 12 17 C4.76109445 16.26089253 -2.01276425 17.13673713 -9 19 C-7 17 -7 17 -4.9375 16.1875 C-2.71610925 15.12640104 -2.71610925 15.12640104 -2.25 12.375 C-2.1675 11.59125 -2.085 10.8075 -2 10 C-2.99 9.34 -3.98 8.68 -5 8 C-4 5 -4 5 -1 3 C-0.67 2.01 -0.34 1.02 0 0 Z " fill="#080A0B" transform="translate(72,13)"/>
<path d="M0 0 C0.66 0.33 1.32 0.66 2 1 C1.48050781 1.31710938 0.96101563 1.63421875 0.42578125 1.9609375 C-6.49658065 6.59290609 -9.40593044 12.21779131 -12 20 C-12.56018618 26.57141475 -11.95930134 31.91404979 -9.6015625 38.05078125 C-8.80915227 40.61839621 -9.1095775 42.4906275 -10 45 C-10.99 45 -11.98 45 -13 45 C-18.27861337 35.96980069 -18.97764834 30.13658607 -16.9375 20 C-14.52257342 11.14150763 -9.48677931 5.36140367 -1.69921875 0.6796875 C-1.13847656 0.45539062 -0.57773437 0.23109375 0 0 Z " fill="#6CBEC0" transform="translate(38,23)"/>
<path d="M0 0 C0.99 0.66 1.98 1.32 3 2 C2.51171875 8.0546875 2.51171875 8.0546875 2 10 C1.01 10.66 0.02 11.32 -1 12 C-1.268125 11.21625 -1.53625 10.4325 -1.8125 9.625 C-2.84814432 6.71885077 -2.84814432 6.71885077 -6 5 C-13.23890555 4.26089253 -20.01276425 5.13673713 -27 7 C-21.16403898 1.16403898 -7.93632294 -1.50790136 0 0 Z " fill="#DE5E90" transform="translate(90,25)"/>
<path d="M0 0 C0.268125 0.61875 0.53625 1.2375 0.8125 1.875 C1.95556848 4.2995233 1.95556848 4.2995233 5 6 C8.43307165 6.24270825 8.43307165 6.24270825 12.1875 6.125 C13.45980469 6.10695313 14.73210938 6.08890625 16.04296875 6.0703125 C17.01878906 6.04710938 17.99460937 6.02390625 19 6 C19 6.66 19 7.32 19 8 C12.72288271 10.547236 6.79958657 11.94506889 0 11 C-0.99 10.34 -1.98 9.68 -3 9 C-2.25 2.25 -2.25 2.25 0 0 Z " fill="#CE5886" transform="translate(7,65)"/>
<path d="M0 0 C0.70640625 0.09990234 1.4128125 0.19980469 2.140625 0.30273438 C3.88621607 0.55041959 5.63072084 0.80573871 7.375 1.0625 C7.045 2.3825 6.715 3.7025 6.375 5.0625 C4.16673622 5.08972517 1.95837362 5.10899729 -0.25 5.125 C-1.47976562 5.13660156 -2.70953125 5.14820312 -3.9765625 5.16015625 C-7.30223791 5.07113924 -10.36547588 4.69936087 -13.625 4.0625 C-8.82886494 -0.89350622 -6.67054308 -0.99073564 0 0 Z " fill="#020404" transform="translate(50.625,76.9375)"/>
<path d="M0 0 C0.66 1.32 1.32 2.64 2 4 C3.32 2.68 4.64 1.36 6 0 C6.33 0.66 6.66 1.32 7 2 C0.77740126 9.8049778 0.77740126 9.8049778 -4 12 C-4.99 12 -5.98 12 -7 12 C-6.50334288 7.40592168 -6.50334288 7.40592168 -4.0625 5.4375 C-3.381875 4.963125 -2.70125 4.48875 -2 4 C-0.7483533 1.91665365 -0.7483533 1.91665365 0 0 Z " fill="#020102" transform="translate(87,34)"/>
<path d="M0 0 C4.01922848 -0.31523361 6.35183346 -0.38044558 9.875 1.6875 C12.19628348 4.21360261 12.71897086 5.62765029 13 9 C12.01 9.495 12.01 9.495 11 10 C10 8 9 6 8 4 C5.88153715 3.31270746 5.88153715 3.31270746 3.4375 2.875 C2.61121094 2.70742188 1.78492187 2.53984375 0.93359375 2.3671875 C0.29550781 2.24601562 -0.34257813 2.12484375 -1 2 C-0.67 1.34 -0.34 0.68 0 0 Z " fill="#15090E" transform="translate(77,29)"/>
<path d="M0 0 C0.33 0 0.66 0 1 0 C1 1.98 1 3.96 1 6 C0.38511719 5.91621094 -0.22976562 5.83242187 -0.86328125 5.74609375 C-1.67152344 5.64425781 -2.47976562 5.54242188 -3.3125 5.4375 C-4.11300781 5.33308594 -4.91351563 5.22867188 -5.73828125 5.12109375 C-8.16817116 4.85244822 -8.16817116 4.85244822 -11 6 C-10.5 4.0625 -10.5 4.0625 -9 2 C-6.32925221 1.35591114 -3.7527055 1.21846869 -1 1 C-0.67 0.67 -0.34 0.34 0 0 Z " fill="#050808" transform="translate(42,60)"/>
<path d="M0 0 C2.18877974 3.2831696 2.20692788 3.70771403 1.6875 7.375 C1.52507813 8.56029297 1.52507813 8.56029297 1.359375 9.76953125 C0.96854685 12.19521464 0.54125184 14.60302758 0 17 C-0.66 17 -1.32 17 -2 17 C-1.34 11.39 -0.68 5.78 0 0 Z " fill="#599D9F" transform="translate(45,48)"/>
<path d="M0 0 C0.33 0.66 0.66 1.32 1 2 C-1.8125 2.46875 -1.8125 2.46875 -4.625 2.9375 C-6.19121094 3.19853516 -6.19121094 3.19853516 -7.7890625 3.46484375 C-12.39453125 4.23242188 -12.39453125 4.23242188 -17 5 C-14.65117776 2.65117776 -12.72876333 1.96496976 -9.625 0.8125 C-8.66851562 0.44769531 -7.71203125 0.08289063 -6.7265625 -0.29296875 C-3.93629561 -1.01651933 -2.62397626 -1.13226373 0 0 Z " fill="#BC507A" transform="translate(80,27)"/>
<path d="M0 0 C2.35694954 0.09031574 4.71153582 0.24688128 7.0625 0.4375 C8.35285156 0.53933594 9.64320312 0.64117187 10.97265625 0.74609375 C12.47119141 0.87177734 12.47119141 0.87177734 14 1 C10.74917327 3.16721782 9.70767847 3.27221018 5.9375 3.25 C5.05964844 3.25515625 4.18179688 3.2603125 3.27734375 3.265625 C1 3 1 3 -1 1 C-0.67 0.67 -0.34 0.34 0 0 Z " fill="#529092" transform="translate(44,77)"/>
<path d="M0 0 C0.66 0.33 1.32 0.66 2 1 C1.16855469 1.61488281 1.16855469 1.61488281 0.3203125 2.2421875 C-0.40414062 2.78101563 -1.12859375 3.31984375 -1.875 3.875 C-2.59429687 4.40867187 -3.31359375 4.94234375 -4.0546875 5.4921875 C-6.08252632 6.99873162 -6.08252632 6.99873162 -8 9 C-8.99 9.33 -9.98 9.66 -11 10 C-9.54144353 6.31353859 -7.69770955 4.83856029 -4.375 2.75 C-3.55773438 2.22921875 -2.74046875 1.7084375 -1.8984375 1.171875 C-1.27195312 0.78515625 -0.64546875 0.3984375 0 0 Z " fill="#5FA7A9" transform="translate(38,23)"/>
</svg>
